<svg xmlns="http://www.w3.org/2000/svg" width="727" height="1024">
  <path fill="blue" d="M233.08943 893.98197c-.87527-2.2809 2.1873-11.35736 5.49294-16.27935 8.0282-11.95369 13.12324-15.26141 35.18696-22.84345 1.64876-.56659 1.42093-.65617-11-4.32506-4.4239-1.30673-10.50808-2.26222-14.83414-2.32964-7.28085-.11346-7.35531-.0879-10.24852 3.51296-9.59444 11.94125-28.7714 20.13641-50.41509 21.54458-17.10085 1.11261-46.60751-3.14041-47.29919-6.8176-.40456-2.15079 11.77267-9.77629 24.09608-15.0892 16.53619-7.12914 28.8785-9.87602 47.70086-10.61618l16.5-.64885-11.5-4.96243c-6.325-2.72934-16-7.17262-21.5-9.87395-11.18451-5.4933-10.78889-5.48858-23.121-.27572-12.06197 5.09868-17.67011 6.06385-35.379 6.08883-21.84508.0308-36.59364-3.60712-51.99988-12.82646-7.1288-4.26599-7.36785-5.8185-1.29594-8.41677 16.58439-7.09674 46.16174-9.67031 66.65903-5.8001 4.87476.92044 9.04209 1.49464 9.26072 1.276.21863-.21863-2.41981-2.59374-5.86321-5.27802-3.4434-2.68428-9.63572-7.74717-13.76072-11.25087-9.99725-8.49148-11.02578-8.93754-24.70087-10.71263-32.19013-4.17843-52.32534-14.67286-73.62464-38.37301-7.53933-8.38916-16.1125-21.521-17.87317-27.37696-1.9697-6.55123-.15178-6.48693 11.3105.40004 5.7135 3.43288 19.38818 10.80818 30.38818 16.38956 11 5.58138 22.7 11.66618 26 13.52178l6 3.37382-6.2486-6.73663c-19.44184-20.96034-29.49177-43.93002-30.89901-70.62142-.85355-16.18926 1.67846-31.04506 5.29127-31.04506 4.05364 0 23.60809 50.93681 26.83847 69.91073.8043 4.7241 2.12291 13.43198 2.93026 19.35084 1.60596 11.7738 2.01524 12.62071 11.47192 23.73843 6.13843 7.21663 17.3206 18.12842 17.94143 17.50759.21953-.21953-.43896-3.91104-1.4633-8.20336-3.8448-16.11092-1.35232-53.15644 3.63756-54.06459 2.57385-.46843 14.88069 22.62013 19.32776 36.26036 3.896 11.94997 4.55612 15.5021 6.18116 33.26109.81838 8.94359 1.97934 17.04789 2.5799 18.00954 2.31635 3.70906 24.72648 18.76643 30.7988 20.69371 2.12742.67521 2.08289.47765-.78439-3.48052-3.90095-5.38511-8.44964-17.20481-10.77532-27.99953-2.5354-11.76808-2.64336-39.09854-.16425-41.57698 1.55146-1.55103 2.10459-1.06442 8.20103 7.21474 15.36358 20.86424 24.73443 39.94346 30.19582 61.47928 4.33374 17.08913 4.24439 16.93391 12.69024 22.04432 6.37025 3.85449 22.65067 10.28626 23.60967 9.32726.24315-.24315-1.61769-2.64416-4.1352-5.33558-9.58006-10.24185-16.52783-29.86563-16.90154-47.73788-.27232-13.02348.49689-13.49394 8.76372-5.36005 15.40361 15.15589 24.58281 30.87222 29.81909 51.0553l3.20191 12.34165 9.9458 3.18475c29.50538 9.44793 80.25758 11.24943 121.58691 4.31583 39.65019-6.65189 78.65188-21.599 113.21998-43.39072 56.14223-35.39203 102.49804-91.69959 128.21103-155.73563 5.01706-12.49455 5.84195-13.7965 7.61674-12.02171 3.56526 3.56526-18.29476 49.22241-36.01007 75.21113-53.49002 78.47098-128.55127 127.50434-215.69748 140.90323-39.77846 6.11601-86.47213 5.07339-112.68739-2.51619-1.25186-.36243-2.3549.78489-4.1432 4.30952-8.38724 16.53073-21.43235 27.10997-41.15072 33.37215-7.23183 2.29669-6.43629 2.2609-7.1799.32308zm12.00625-6.39036c7.67932-2.56936 16.19847-7.848 21.28201-13.18678 4.5034-4.72951 10.39164-13.0697 10.39164-14.71887 0-2.15877-10.7861 5.349-18.21998 12.68219-4.24599 4.18848-8.00611 7.32928-8.35583 6.97956-.99737-.99737 5.19578-9.01634 10.18312-13.18524 5.69715-4.76223 5.09732-5.46978-1.71187-2.0193-6.90301 3.49801-14.83302 11.69764-18.20925 18.82835-3.70736 7.83006-4.02086 7.51791 4.64016 4.62009zm-44.82635-20.39038c9.52197-2.05591 17.3483-4.86916 22.60615-8.12601 4.43328-2.7461 10.89385-8.36732 10.89385-9.47854 0-1.69796-27.12675 3.03386-54 9.41942-7.17019 1.70377-12.94663 2.06631-11.45.71863 2.331-2.09902 37.85669-11.2665 51.45-13.27678l8.5-1.25705-5-.79898c-16.84673-2.69207-47.8888 4.95442-71.36803 17.57984-6.42166 3.45309-5.90949 3.93365 5.86803 5.50574 4.675.62403 9.85 1.31574 11.5 1.53714 5.68497.76279 24.01567-.31541 31-1.82341zm57.58978-27.44329c-.53933-1.00774-1.68633-2.41796-2.5489-3.13383-2.32265-1.92762-11.54956-17.55105-13.68606-23.17387-3.5827-9.4289-1.78084-8.24928 4.68307 3.06586 3.58995 6.28425 8.52061 14.10845 10.95701 17.3871 2.43641 3.27865 4.61015 6.46198 4.83056 7.07408.2204.6121.73793.7998 1.15007.41713 1.55887-1.44743-2.78959-16.24799-7.53211-25.63653-5.48108-10.85063-12.26624-20.24241-19.98872-27.6677l-5.20012-5 .64246 8.2063c1.38003 17.62738 8.05364 33.74386 18.23791 44.0437 5.99774 6.06581 10.63306 8.48783 8.45483 4.41776zm-98.8631-14.55383c3.69968-.82484 8.87468-2.49968 11.5-3.72185l4.77332-2.22214-13-1.25281c-7.15-.68905-18.81953-1.28978-25.93228-1.33497-7.11275-.0452-17.01275-.629-22-1.29736l-9.06772-1.2152 8-.84659c7.58962-.80316 39.08792-.33549 52 .77206l6 .51466-4.25534-2.04503c-13.62823-6.54946-50.22513-7.87131-70.74234-2.55516-5.49871 1.42475-10.11121 2.59046-10.25 2.59046-.13878 0-.25232.40759-.25232.90575 0 2.30289 19.77777 9.9078 32.93416 12.66378 8.18577 1.71474 30.71143 1.18051 40.29252-.9556zm49.73948-14.5879c-4.85936-19.15835-14.66743-39.42003-26.35801-54.45082-2.53448-3.25863-4.60815-6.29613-4.60815-6.75 0-.45386-.45-.82521-1-.82521-2.06689 0-1.1308 21.3751 1.47483 33.67711 3.48783 16.46718 7.63681 24.7456 17.03776 33.99528 4.0961 4.03019 7.92015 7.32761 8.4979 7.32761s-1.30742-3.4875-4.18926-7.75c-7.42827-10.98706-17.09254-36.96117-19.16178-51.5-.69378-4.87463.96578-4.85549 2.28031.0263 2.87076 10.6612 9.41553 29.18717 13.05415 36.95178 4.05311 8.64912 15.10666 24.47019 15.74933 22.54219.18185-.54554-1.06784-6.50544-2.77708-13.24424zm-60.50301-38.03144c-1.51731-15.92505-4.24387-26.81646-10.03195-40.07329-3.90467-8.94312-9.46731-18.9213-10.54826-18.9213-2.71421 0-3.72591 31.41935-1.37897 42.82551 2.17685 10.57952 6.17099 19.68761 10.34992 23.60159 4.30548 4.03251 4.54361 3.08617 1.25615-4.99205-5.08011-12.4833-9.78419-38.28233-7.2642-39.83977.61846-.38223 1.28486 1.25993 1.67816 4.13537 1.54634 11.30526 5.55393 26.44227 9.29501 35.10807 3.49637 8.09896 6.90598 13.76962 7.76361 12.912.14385-.14386-.35991-6.78411-1.11947-14.75613zm-28.54649 1.61288c-.7774-.73239-7.37093-4.2551-26.41667-14.1136-25.24893-13.06942-47.54055-26.46609-44-26.44283.55.004 7.075 3.14781 14.5 6.98709 23.71324 12.26154 48.9584 24.96187 49.61809 24.96187.35152 0-1.33124-1.80746-3.73948-4.01659-9.36603-8.59166-23.96767-17.74806-46.29833-29.03277-12.69415-6.41494-25.32602-13.0909-28.07081-14.83547-6.1344-3.89896-6.73956-2.74417-2.35654 4.49691 12.43784 20.54827 36.1948 39.53201 58.66492 46.87805 9.7333 3.18205 29.95341 6.86453 28.09882 5.11734zm-29.90934-57.26856c-2.0016-17.1519-7.01807-33.58784-17.65321-57.83891-7.51134-17.12792-7.8792-16.89943-7.78124 4.83323.08712 19.32709 2.52953 30.46649 9.90322 45.16677 5.0732 10.11401 10.10979 16.95054 9.20894 12.5-.27831-1.375-1.7-5.875-3.1593-10-4.38476-12.39436-10.51457-34.99478-11.1022-40.93346-.79308-8.01501.78506-4.85329 4.99123 9.99968 3.29398 11.63181 11.03374 35.31111 13.37952 40.93378.57365 1.375 1.3152 3.35191 1.6479 4.39313 1.38035 4.32008 1.64016.1577.56514-9.05422zm309.17036-104.20793c-1.81145-1.14853-2.97385-6.81659-3.78848-18.47329l-.68783-9.84231-3.42846 6.49458c-10.68509 20.24092-28.24949 25.71347-41.14378 12.81918-4.28943-4.28943-7.72316-10.1701-9.59747-16.4368l-1.13884-3.80766-5.44641 7.69209c-19.33124 27.30192-45.53735 28.21703-57.53572 2.00913-1.40652-3.07224-2.73161-5.5859-2.94464-5.5859-.21303 0-2.81024 3.27627-5.77158 7.28059-11.58055 15.65924-22.54765 20.35755-34.27173 14.68201-10.153-4.91498-16.41766-17.17355-20.66517-40.43716-3.35641-18.38308-3.2991-72.02654.0972-90.96601 5.8737-32.75492 15.31876-51.55943 25.8971-51.55943 8.12055 0 13.28696 7.83166 15.19271 23.03029 4.05229 32.31764-6.47529 75.96157-26.36199 109.28817l-5.50309 9.22222 1.36769 6.47966c3.15447 14.94489 7.76271 23.34122 14.70127 26.78612 4.33872 2.15411 4.87956 2.20868 8.18817.82626 8.31794-3.47546 19.24939-17.53736 26.70121-34.34767 5.01246-11.30744 8.35943-15.81485 13.64225-18.37222 5.12991-2.48334 11.61062-2.26282 15.88929.54067 5.93113 3.88622 8.29442 16.87778 4.55621 25.0465-2.29699 5.01938-10.28859 13.94655-15.33901 17.13474-3.81933 2.41104-3.82882 2.43341-2.06178 4.86065 4.43194 6.08777 15.04916 7.58525 22.56232 3.18225 6.00252-3.51771 13.22543-11.76266 18.63714-21.27428l4.39647-7.72725-1.22897-8.58805c-2.98491-20.85865-2.40202-46.67163 1.57704-69.83806l.55821-3.25h-23.99105c-26.78953 0-28.23981-.33707-25.15033-5.84541l1.48888-2.65459 24.75845-.5 24.75845-.5 2.27365-6.50947c1.25051-3.58021 3.09677-7.76571 4.1028-9.30111 3.9102-5.96772 13.28413-7.71123 17.47497-3.25028 2.28121 2.42822 5.01181 11.54819 5.04156 16.83832l.0156 2.77746 14.25-.27746 14.25-.27746.2722-19.42429c.27795-19.83449.71235-22.07571 4.27881-22.07571 4.51479 0 4.94899 1.98028 4.94899 22.57143v19.42857h14.8c15.52956 0 17.2.43704 17.2 4.5 0 4.05725-1.67761 4.5-17.05049 4.5h-14.65049l-.60251 44.75c-.33139 24.6125-.90115 45.7625-1.26615 47-1.41128 4.78488 1.4033 1.95839 3.48525-3.5 10.60752-27.81044 36.46947-39.81765 45.83439-21.28004 5.79741 11.47585.41807 21.89284-16.37983 31.7192-7.47052 4.37007-9.10853 7.10246-6.35571 10.6021 2.90327 3.69092 9.84336 5.28261 16.51916 3.78863 14.98763-3.35408 23.79432-12.27965 35.96332-36.44881 7.39228-14.68198 10.68632-17.82303 19.26841-18.37352 10.34414-.66351 15.61431 4.9595 15.69186 16.74244.0721 10.95903-7.34669 21.79361-20.2765 29.61217-1.064.6434 2.92319 4.866 6.18531 6.55051 5.86025 3.02614 13.22675 2.85206 18.85369-.44555 8.70741-5.10288 18.01264-18.17176 23.15949-32.52672 3.80581-10.61469 3.67719-11.23654-2.27041-10.97776-8.67179.37732-9.89642-2.72619-5.45429-13.82244 3.36751-8.41188 9.05464-14.6725 12.91265-14.21473 3.60093.42726 6.46209 4.43925 7.06813 9.9111 1.01246 9.14136.53847 8.6531 8.80549 9.07057 14.44239.7293 16.73951 5.21244 13.47995 26.30796-1.83595 11.88203-1.98284 14.71444-.95762 18.46499 2.34018 8.56106 9.76184 12.33198 16.95253 8.61353 4.39101-2.27068 15.09535-14.48086 20.34051-23.2019l4.75614-7.90797-1.18843-5.96688c-2.59719-13.03993-1.43089-58.31867 1.86017-72.21688l.53279-2.25H573.72644l-1.13723-2.49593c-.93835-2.05947-.82278-2.8434.66089-4.48284 1.68726-1.86439 3.30705-2.00337 26.27188-2.25406l24.47376-.26717 1.71541-5.5c3.60498-11.55839 7.56322-16 14.25877-16 7.54479 0 10.55314 3.84545 11.64514 14.88549l.65426 6.61451 32.91425.26388c34.33902.2753 35.58575.43851 35.58575 4.65857 0 4.49463-.6347 4.57755-35.03523 4.57755h-32.63523l-1.23597 12.74709c-2.45951 25.36599-8.8833 49.34592-17.14117 63.98776-3.62889 6.43433-3.62752 7.87916.0163 17.11658 4.89524 12.40989 10.05924 18.14857 16.33114 18.14857 6.65655 0 17.8728-12.28215 24.36397-26.67934 4.44297-9.85435 8.72582-11.96981 10.82747-5.34809 1.46551 4.61742-8.82091 23.22023-17.79315 32.1786-15.0187 14.99548-31.38902 10.80872-40.66879-10.40117-1.86494-4.2625-3.69576-7.75-4.06849-7.75-.37274 0-2.37637 2.55838-4.45251 5.68528-12.25585 18.45864-26.29282 25.98612-37.94203 20.34683-10.75141-5.20467-14.74942-18.06164-11.04896-35.53173 3.08789-14.57815 1.73822-17.78-7.29108-17.29677l-5.53807.29639-2.31299 8.72883c-2.69788 10.18139-4.64525 14.30868-12.01577 25.46641-11.25885 17.04401-24.73215 23.5911-39.97484 19.42498-7.70164-2.105-16.37697-11.24863-19.32695-20.37022-1.55979-4.82303-2.16464-4.72846-6.39566 1-13.14421 17.79618-31.75648 25.0272-47.64539 18.51064-7.60645-3.11965-13.01594-11.43082-11.46416-17.61359.84652-3.37281 4.85457-6.88897 12.20944-10.71101 12.77697-6.6397 18.22532-15.86869 13.16553-22.30118-8.37842-10.65143-28.46444 11.6896-35.3935 39.36703-3.84828 15.37158-4.89753 16.95608-9.35624 14.12909zm-26.49484-13.07918c6.4334-3.92273 14.21598-15.91982 20.13498-31.0387 2.53322-6.47059 2.55259-6.74965 2.96835-42.7631l.4185-36.25h-28.99651l-.6525 8.25c-2.0717 26.1939-9.01668 53.94135-17.13427 68.45694-4.17017 7.45698-3.98169 9.97308 1.61829 21.6026 6.19191 12.85878 13.39916 16.769 21.64316 11.74226zm-82.81203-16.52772c6.82864-6.3874 10.50373-13.50876 9.87053-19.12649-1.51338-13.42665-13.49112-7.98849-16.8445 7.64778-1.18528 5.52678-.38923 15.95463 1.21795 15.95463.53399 0 3.12419-2.01416 5.75602-4.47592zm210.39829-2.42646c7.00675-7.42753 9.28952-12.26778 8.39256-17.79509-1.68857-10.40548-12.00004-7.20762-16.06575 4.98242-2.32079 6.9583-2.06847 19.71505.38995 19.71505.42453 0 3.70199-3.10607 7.28324-6.90238zm-153.28748-30.84835c5.52069-15.23609 11.01838-42.48835 11.01838-54.6186v-5.63067h-12.69348l-1.75551 10.25c-2.91216 17.00333-3.31956 60.96106-.54912 59.24883.44522-.27516 2.23609-4.43746 3.97973-9.24956zm288.91283-9.57899c3.92508-12.25419 7.1256-28.99142 7.82485-40.92028l.57152-9.75h-12.99772l-1.20042 7.25c-2.21449 13.37452-3.36224 35.22342-2.5965 49.42767l.74515 13.82233 2.35792-5.32972c1.29685-2.93134 3.67969-9.45634 5.2952-14.5zm-412.60647 8.07972c6.90321-11.83952 16.20699-38.39085 19.7104-56.25 5.06943-25.84211 2.96657-55.5-3.93517-55.5-5.98227 0-13.37549 19.41646-17.57412 46.15407-2.51475 16.01429-3.28111 69.84593-.99435 69.84593.17337 0 1.43032-1.9125 2.79324-4.25zm134.31316-73.48653c-1.05063-8.93923-3.50266-9.29715-7.67423-1.1202-3.07708 6.03157-2.69069 6.85673 3.21077 6.85673h5.13768zm285.89569.48653c-1.164-8.84578-3.57378-9.51343-7.3625-2.03983-3.29039 6.49057-2.96591 7.28983 2.9595 7.28983h5.09384ZM78.26932 611.53693c-32.63529-3.18492-57.06667-19.7212-62.92584-42.59109-4.64536-18.13207.14337-36.12867 12.99791-48.84763 4.90951-4.85774 19.03691-14.21068 23.92788-15.84128.54997-.18336-.52953-2.07535-2.39889-4.20443-14.26176-16.24326-12.3826-42.72799 4.11542-58.00225 11.44252-10.59376 27.16865-16.21764 48.00133-17.16594 26.2908-1.19675 45.13911 5.41074 56.79807 19.91123 7.52784 9.36252 11.26252 20.51625 7.97154 23.80723-2.5183 2.51829-5.56633 1.49072-6.99384-2.35781-6.42868-17.3316-15.02863-24.87641-33.90354-29.74389-9.27429-2.39166-28.64063-2.59276-39.27466-.40782-10.78941 2.21687-22.56171 8.34276-28.46289 14.8111-9.45985 10.36903-11.28166 24.78608-4.73925 37.5045 1.98728 3.86327 4.87243 8.23051 6.41145 9.70499l2.79823 2.68086 9.83854-2.31167c11.7934-2.77099 37.5825-3.36972 45.27814-1.0512 6.73569 2.02931 11.47097 7.24089 10.72968 11.80892-1.31782 8.12079-8.28058 10.8825-27.16927 10.77643-14.75553-.0829-21.83465-1.32088-32.32998-5.65397l-7.32997-3.02625-6.8498 2.68743c-8.34075 3.27238-19.58543 11.00425-23.86846 16.41201-10.41524 13.15032-10.98176 33.48644-1.3376 48.01598 19.53633 29.43273 89.89004 34.35368 127.56989 8.92299 12.39144-8.36317 26.41376-24.51836 29.10866-33.53625 1.3977-4.67708 7.02079-5.15488 8.14097-.69174 1.38243 5.50805-5.59847 17.45526-16.85081 28.83871-23.55065 23.82506-56.72256 33.70142-99.2529 29.55084zm37.75001-101.57529c2.6534-.76756 2.10427-2.0523-1.39923-3.27363-5.36901-1.87165-36.85077-1.03495-36.85077.97939 0 2.84418 30.10641 4.64997 38.25 2.29424zm495.33248-89.67443c-3.84173-5.03676-16.97901-32.88483-21.08574-44.69703-4.20415-12.09237-6.7315-22.91684-8.98917-38.5-2.0484-14.1387-2.78178-16.29569-7.90209-23.24155-4.3724-5.93129-21.25052-21.94674-22.16508-21.03218-.28254.28254.44216 2.93471 1.61045 5.89372 5.78176 14.64385 6.45552 41.69045 1.3958 56.03122-2.84732 8.07016-5.35622 7.31717-10.13778-3.04261-14.68233-31.81093-17.37165-40.7322-19.72706-65.44063l-1.31859-13.83203-4.88161-5.00586c-2.68489-2.75322-6.68161-6.25552-8.88161-7.7829-4.51872-3.13716-25.02759-15.04718-25.91103-15.04718-.31667 0 .94314 1.98988 2.79958 4.42194 11.10892 14.55349 17.63767 36.25441 17.60044 58.50213-.033 19.6945-2.622 19.56273-18.15642-.92407-13.86403-18.28387-20.91524-35.81329-23.86647-59.33233-1.5204-12.11652-2.80136-13.87138-14.18905-19.43848-8.06739-3.9439-24.63301-9.70656-25.47694-8.86263-.23199.23198 1.59745 1.8719 4.06542 3.64426 11.77254 8.4544 19.34898 24.82832 21.17513 45.7629 1.38509 15.87842-.84871 16.79702-12.50381 5.14192-14.7175-14.7175-23.10288-30.70947-25.5185-48.66702-1.48168-11.01469-14.56452-15.09897-55.01835-17.17599-91.08191-4.6764-173.03423 25.84427-237.36842 88.40073-32.8998 31.9907-60.20163 73.70303-74.3062 113.52664-3.51517 9.9249-4.26975 10.98421-6.34571 8.90825-2.01517-2.01517 4.07435-18.64937 14.06065-38.40825C103.36243 275.12 201.8401 209.94254 318.38606 202.66378c18.46588-1.15327 49.91068.0498 63.38327 2.42509 4.675.82422 8.99729 1.49919 9.6051 1.49995.60781.00075 3.0689-2.81114 5.46909-6.24864 9.0897-13.01808 17.09758-19.59502 29.92581-24.57835 7.36471-2.86093 17.8642-5.20039 18.52691-4.12809 1.50651 2.43757-4.89488 15.03733-11.16696 21.97978-4.30593 4.76615-15.26094 10.53395-24.43034 12.86254l-7.13932 1.81305 4.35485 1.75852c8.82265 3.56264 13.5699 4.64682 22.85486 5.21959l9.5.58604 4.5-3.58043c19.60016-15.59492 30.35438-19.18265 57.5-19.18265 18.29123 0 28.64069 1.32917 32.244 4.14106 2.74064 2.1387-3.83125 7.19879-19.244 14.8171-16.76915 8.28876-28.51715 11.08157-53.78625 12.7864-3.63823.24546-3.2847.51724 9.04344 6.95244 7.05633 3.68334 14.88198 7.57671 17.39035 8.65192l4.56067 1.95493 8.69389-3.92713c26.93767-12.16808 58.4713-11.21384 87.42257 2.64547 10.60163 5.07513 11.09337 6.19839 4.67027 10.66807-13.56774 9.44147-47.28323 12.79434-72.47217 7.20707-4.965-1.10131 11.74018 12.13387 26.30613 20.84183 5.3395 3.19212 7.73124 4.04717 10.96611 3.92042 11.54147-.45225 31.64251 4.24956 43.20499 10.106 17.37642 8.80124 34.20229 24.79489 47.6322 45.27627 10.08387 15.37848 8.53629 15.38917-24.6322.17007-12.33414-5.65943-20.75539-10.17911-34.93898-18.75173-4.57796-2.76694-4.61939-2.85447 4.98833 10.53981 18.21449 25.39313 25.61672 49.46914 24.13502 78.5-.76553 14.99901-1.64485 16.54052-6.10189 10.69703zm1.60459-20.13005c-.24851-15.37976-2.22383-27.0057-6.51165-38.32493-3.56511-9.4114-10.33349-21.32089-12.52253-22.03438-1.02484-.33403-1.11083.007-.35947 1.42663.5432 1.02614 2.67208 7.4907 4.73084 14.3657 5.89578 19.68828 8.07092 30.01608 5.47586 26-.95966-1.48514-10.26631-29.94295-13.56802-41.48819-1.65783-5.797-5.14361-13.51181-6.10503-13.51181-1.80605 0 4.13322 31.23335 8.36695 44 3.84637 11.59858 18.91962 43.7197 20.00615 42.63316.37781-.37781.59692-6.25759.4869-13.06618zM552.30029 344.941c3.28771-18.44628 1.23635-37.62966-5.54688-51.87182-2.75224-5.77866-9.3972-13.72509-7.50841-8.979 6.82134 17.14038 12.55953 49.86854 7.93206 45.24107-.32574-.32574-1.4422-5.68824-2.48103-11.91666-3.18838-19.11651-10.47517-37.28595-15.76792-39.31697-3.44032-1.32017.47045 26.71664 5.85742 41.99256 3.68693 10.4551 14.73726 34.07987 15.55714 33.25999.30709-.30709 1.18802-4.09122 1.95762-8.40917zm88.89155-8.57494c-18.13746-26.57486-46.22048-44.76833-74.42251-48.21433l-5.5-.67204 2.33478 1.8735c1.28414 1.03043 3.98414 2.73658 6 3.79145 11.89632 6.22515 46.39364 27.98279 53.66522 33.84693 4.68095 3.77494 2.46033 3.91796-3.56331.22951-2.99018-1.83098-9.93669-5.94514-15.43669-9.14258-5.5-3.19743-14.5-8.5966-20-11.99816-11.87488-7.34418-24.41543-14.50141-25.33954-14.46196-2.01742.0861 15.24407 14.31708 26.83954 22.12742 15.62912 10.52727 58.1048 31.95813 59.92251 30.23355.23238-.22047-1.79262-3.64646-4.5-7.61329zm-141.66573-34.02588c-.98962-26.01065-8.65166-44.94837-24.07321-59.5-5.86876-5.53771-8.81896-7.16591-4.52982-2.5 5.98962 6.51579 12.437 20.09298 21.45568 45.18235 5.69951 15.85566 4.10349 18.00165-2.12133 2.85231-10.22792-24.89169-11.82486-28.63484-14.20026-33.28466-2.61352-5.11593-9.2879-14.38085-10.41501-14.4574-.34494-.0234-.43613 2.0949-.20266 4.7074 2.21068 24.73656 11.06045 44.89751 28.75142 65.49951 2.24312 2.61223 4.47461 4.74973 4.95885 4.75.48835.00027.65595-5.9004.37634-13.24951zm-56.77549-41.25c-2.7868-14.30187-7.79775-25.0965-14.64886-31.55673-8.02529-7.56743-8.91394-7.89983-5.1659-1.93231 3.98066 6.3379 10.02859 18.78043 11.78607 24.24776 2.47199 7.69005.19007 5.93551-4.23822-3.25872-4.60478-9.56068-12.22424-21.78916-15.88882-25.5-1.96922-1.99408-1.97293-1.98521-1.25235 3 2.25882 15.62753 12.6738 34.34132 25.6537 46.09496l4.27309 3.86939.32521-4.48217c.17887-2.4652-.20089-7.18218-.84392-10.48218zm120.69635-4.56954c7.733-1.05733 24.95162-6.18744 26.75335-7.97089 2.0473-2.02654-21.36806-11.06232-34.73559-13.40416-6.7928-1.19002-26.98682-.69453-34.1954.83902-6.36577 1.35426-19.39376 5.7571-21.95868 7.421-2.15441 1.39758 9.91725 2.24638 40.20868 2.82721 17.1875.32957 31.25.93363 31.25 1.34236 0 2.23801-26.90403 3.44695-49 2.20184-9.625-.54238-17.6816-.8122-17.90354-.59961-1.24449 1.192 14.23693 5.81107 24.48703 7.30599 8.5942 1.25343 26.06371 1.27196 35.09415.0372zm-78.67764-38.34529c10.39329-2.2544 19.31951-5.27666 27.17761-9.20187 9.1356-4.56333 16.11014-9.08742 15.03446-9.75222-2.32987-1.43994-20.86351-2.81564-31.21207-2.31678-14.04957.67727-24.48882 3.27799-34.90053 8.69476-8.69472 4.52349-13.92527 8.9917-10.52379 8.98996 5.32503-.003 50.35729-9.01543 58.13902-11.63589.98191-.33065.11122.58448-1.93488 2.03363-2.04609 1.44914-7.89609 3.74283-13 5.09707-9.66832 2.56533-40.15506 8.50617-43.65134 8.50617-1.10575 0-2.32702.51222-2.71393 1.13826-1.04149 1.68516 28.23328.47548 37.58545-1.55309zM406.48891 201.484c4.28593-2.38782 10.64652-7.31987 17.34237-13.44741 2.50907-2.29612 5.63397-4.74849 6.94422-5.44971 3.52525-1.88666-2.08805 4.97968-10.5166 12.86417-7.44471 6.96416-7.43979 7.15571.089 3.46921 6.21569-3.04353 14.16087-10.93892 17.40292-17.29387l2.20239-4.31704-4.55934.5139c-10.61305 1.19625-27.84334 12.69305-33.57035 22.3996-2.41122 4.08672-1.06128 4.45163 4.66536 1.26115zM101.66607 415.70766c-3.06491-2.48182-1.9632-4.96257 6.36601-14.33442 7.83518-8.81597 10.68624-10.45469 13.80104-7.93249 3.65625 2.96066 1.92402 6.57802-7.61369 15.89943-9.29223 9.08152-9.23654 9.05327-12.55336 6.36748z"/>
</svg>